<?xml version="1.0" standalone="no"?>
<!DOCTYPE svg PUBLIC "-//W3C//DTD SVG 20010904//EN"
 "http://www.w3.org/TR/2001/REC-SVG-20010904/DTD/svg10.dtd">
<svg version="1.0" xmlns="http://www.w3.org/2000/svg"
 width="555.000000pt" height="555.000000pt" viewBox="0 0 555.000000 555.000000"
 preserveAspectRatio="xMidYMid meet">
<metadata>
Created by potrace 1.11, written by Peter Selinger 2001-2013
</metadata>
<g transform="translate(0.000000,555.000000) scale(0.100000,-0.100000)"
fill="#000000" stroke="none">
<path d="M3114 4092 c-78 -103 -201 -266 -274 -362 -73 -96 -193 -255 -267
-353 -74 -97 -138 -175 -141 -173 -4 2 -61 76 -127 165 -66 88 -126 163 -134
166 -20 8 -22 5 -233 -275 -102 -135 -251 -333 -333 -440 -81 -107 -209 -277
-284 -377 -75 -100 -138 -182 -141 -183 -3 0 -50 58 -103 130 -63 83 -105 130
-116 130 -12 0 -78 -80 -194 -232 -96 -128 -220 -291 -274 -363 -393 -516
-493 -655 -493 -679 l0 -26 2775 0 2775 0 0 32 c0 32 -24 66 -477 663 -71 94
-220 292 -333 440 -194 257 -307 406 -618 818 -76 100 -223 295 -327 432 -559
738 -509 675 -526 675 -8 0 -78 -84 -155 -188z"/>
</g>
</svg>
